# Blender v3.0.1 OBJ File: ''
# www.blender.org
mtllib bubble.mtl
o BubbleB001_Mesh
v -43.686375 0.000000 46.241810
v -43.686375 0.000000 46.241810
v -43.686375 0.000000 46.241810
v -43.686375 0.000000 46.241810
v -43.686375 0.000000 46.241810
v -43.686375 0.000000 46.241810
v -43.686375 0.000000 46.241810
v -43.686375 0.000000 46.241810
v -43.686375 0.000000 46.241810
v -43.686375 0.000000 46.241810
v -43.686375 0.000000 46.241810
v -43.686375 0.000000 46.241810
v -43.686375 0.000000 46.241810
v -43.686375 0.000000 46.241810
v -43.686375 0.000000 46.241810
v -43.686375 0.000000 46.241810
v -43.686375 0.000000 46.241810
v -43.686375 0.000000 46.241810
v -43.686375 0.000000 46.241810
v -43.686375 0.000000 46.241810
v -43.686375 0.000000 46.241810
v -43.686375 0.000000 46.241810
v -43.686375 0.000000 46.241810
v -43.686375 0.000000 46.241810
v -43.686375 0.000000 46.241810
v -43.686375 0.000000 46.241810
vt 0.500000 0.500000
vt 0.500000 0.000000
vt 1.000000 0.000000
vt 1.000000 0.500000
vt 0.000000 0.500000
vt 0.000000 0.000000
vt 0.500000 1.000000
vt 1.000000 1.000000
vt 0.000000 1.000000
vt 0.500000 0.500000
vt 0.000000 0.500000
vt 0.000000 0.000000
vt 0.500000 0.000000
vt 1.000000 0.500000
vt 1.000000 0.000000
vt 0.500000 1.000000
vt 0.000000 1.000000
vt 1.000000 1.000000
vt 0.500000 0.500000
vt 0.000000 0.500000
vt 0.000000 0.000000
vt 1.000000 0.500000
vt 1.000000 0.000000
vt 0.500000 1.000000
vt 0.000000 1.000000
vt 1.000000 1.000000
vt 0.500000 0.500000
vt 0.000000 0.500000
vt 0.500000 0.000000
vt 1.000000 0.500000
vt 1.000000 0.000000
vt 0.500000 1.000000
vt 0.000000 1.000000
vt 0.500000 0.500000
vt 0.000000 0.500000
vt 0.000000 0.000000
vt 0.500000 0.000000
vt 1.000000 0.500000
vt 1.000000 0.000000
vt 0.000000 1.000000
vt 1.000000 1.000000
vt 0.500000 0.500000
vt 0.000000 0.500000
vt 0.000000 0.000000
vt 0.500000 0.000000
vt 1.000000 0.500000
vt 0.500000 1.000000
vt 1.000000 1.000000
vn 0.0000 0.0000 1.0000
vn 0.0000 0.0000 0.9956
vn 0.0000 0.0000 0.9924
vn 0.0000 0.0000 0.9868
usemtl None
s 1
f 5/1/1 2/2/2 1/3/3
f 1/3/3 4/4/1 5/1/1
f 6/5/1 3/6/4 2/2/2
f 2/2/2 5/1/1 6/5/1
f 8/7/2 5/1/1 4/4/1
f 4/4/1 7/8/4 8/7/2
f 9/9/3 6/5/1 5/1/1
f 5/1/1 8/7/2 9/9/3
f 14/10/1 13/11/2 10/12/3
f 10/12/3 11/13/1 14/10/1
f 15/14/2 14/10/1 11/13/1
f 11/13/1 12/15/4 15/14/2
f 17/16/1 16/17/4 13/11/2
f 13/11/2 14/10/1 17/16/1
f 18/18/3 17/16/1 14/10/1
f 14/10/1 15/14/2 18/18/3
f 20/19/1 19/20/1 1/21/3
f 1/21/3 2/2/2 20/19/1
f 21/22/1 20/19/1 2/2/2
f 2/2/2 3/23/4 21/22/1
f 11/24/1 10/25/3 19/20/1
f 19/20/1 20/19/1 11/24/1
f 12/26/4 11/24/1 20/19/1
f 20/19/1 21/22/1 12/26/4
f 22/27/1 21/28/1 3/6/4
f 3/6/4 6/29/1 22/27/1
f 23/30/1 22/27/1 6/29/1
f 6/29/1 9/31/3 23/30/1
f 15/32/2 12/33/4 21/28/1
f 21/28/1 22/27/1 15/32/2
f 18/18/3 15/32/2 22/27/1
f 22/27/1 23/30/1 18/18/3
f 24/34/1 23/35/1 9/36/3
f 9/36/3 8/37/2 24/34/1
f 25/38/1 24/34/1 8/37/2
f 8/37/2 7/39/4 25/38/1
f 17/16/1 18/40/3 23/35/1
f 23/35/1 24/34/1 17/16/1
f 16/41/4 17/16/1 24/34/1
f 24/34/1 25/38/1 16/41/4
f 26/42/1 25/43/1 7/44/4
f 7/44/4 4/45/1 26/42/1
f 19/46/1 26/42/1 4/45/1
f 4/45/1 1/3/3 19/46/1
f 13/47/2 16/17/4 25/43/1
f 25/43/1 26/42/1 13/47/2
f 10/48/3 13/47/2 26/42/1
f 26/42/1 19/46/1 10/48/3
o BubbleD001_Mesh.002
v -43.728477 0.218876 46.240456
v -43.716354 0.216151 46.243183
v -43.704231 0.218876 46.240456
v -43.731205 0.216151 46.228333
v -43.716354 0.210000 46.228333
v -43.701504 0.216151 46.228333
v -43.728477 0.218876 46.216209
v -43.716354 0.216151 46.213482
v -43.704231 0.218876 46.216209
v -43.728477 0.243124 46.240456
v -43.716354 0.245849 46.243183
v -43.704231 0.243124 46.240456
v -43.731205 0.245849 46.228333
v -43.716354 0.252000 46.228333
v -43.701504 0.245849 46.228333
v -43.728477 0.243124 46.216209
v -43.716354 0.245849 46.213482
v -43.704231 0.243124 46.216209
v -43.731205 0.231000 46.243183
v -43.716354 0.231000 46.249332
v -43.701504 0.231000 46.243183
v -43.695354 0.231000 46.228333
v -43.701504 0.231000 46.213482
v -43.716354 0.231000 46.207333
v -43.731205 0.231000 46.213482
v -43.737354 0.231000 46.228333
vt 0.500000 0.500000
vt 0.500000 0.000000
vt 1.000000 0.000000
vt 1.000000 0.500000
vt 0.000000 0.500000
vt 0.000000 0.000000
vt 0.500000 1.000000
vt 1.000000 1.000000
vt 0.000000 1.000000
vt 0.500000 0.500000
vt 0.000000 0.500000
vt 0.000000 0.000000
vt 0.500000 0.000000
vt 1.000000 0.500000
vt 1.000000 0.000000
vt 0.500000 1.000000
vt 0.000000 1.000000
vt 1.000000 1.000000
vt 0.500000 0.500000
vt 0.000000 0.500000
vt 0.000000 0.000000
vt 1.000000 0.500000
vt 1.000000 0.000000
vt 0.500000 1.000000
vt 0.000000 1.000000
vt 1.000000 1.000000
vt 0.500000 0.500000
vt 0.000000 0.500000
vt 0.500000 0.000000
vt 1.000000 0.500000
vt 1.000000 0.000000
vt 0.500000 1.000000
vt 0.000000 1.000000
vt 0.500000 0.500000
vt 0.000000 0.500000
vt 0.000000 0.000000
vt 0.500000 0.000000
vt 1.000000 0.500000
vt 1.000000 0.000000
vt 0.000000 1.000000
vt 1.000000 1.000000
vt 0.500000 0.500000
vt 0.000000 0.500000
vt 0.000000 0.000000
vt 0.500000 0.000000
vt 1.000000 0.500000
vt 0.500000 1.000000
vt 1.000000 1.000000
vn -0.0000 -1.0000 0.0000
vn 0.1399 -0.7001 0.7002
vn -0.4720 -0.6233 0.6235
vn -0.7071 -0.7071 -0.0000
vn 0.7071 -0.7071 0.0001
vn 0.7070 -0.5002 0.4999
vn -0.1398 -0.7001 -0.7002
vn -0.7070 -0.5002 -0.5000
vn 0.4721 -0.6233 -0.6234
vn 0.0000 1.0000 0.0000
vn -0.7002 0.7001 -0.1398
vn -0.6232 0.6235 0.4721
vn 0.0001 0.7071 0.7071
vn 0.7003 0.7001 0.1398
vn 0.5000 0.5000 0.7071
vn 0.0000 0.7070 -0.7072
vn -0.5000 0.5000 -0.7071
vn 0.6233 0.6235 -0.4721
vn -0.0000 -0.0000 1.0000
vn -0.7071 -0.0001 0.7071
vn 0.7071 -0.0000 0.7071
vn 1.0000 -0.0000 -0.0000
vn 0.7071 0.0000 -0.7071
vn -0.0000 0.0000 -1.0000
vn -0.7071 0.0001 -0.7071
vn -1.0000 0.0000 -0.0000
usemtl None
s 1
f 31/49/5 28/50/6 27/51/7
f 27/51/7 30/52/8 31/49/5
f 32/53/9 29/54/10 28/50/6
f 28/50/6 31/49/5 32/53/9
f 34/55/11 31/49/5 30/52/8
f 30/52/8 33/56/12 34/55/11
f 35/57/13 32/53/9 31/49/5
f 31/49/5 34/55/11 35/57/13
f 40/58/14 39/59/15 36/60/16
f 36/60/16 37/61/17 40/58/14
f 41/62/18 40/58/14 37/61/17
f 37/61/17 38/63/19 41/62/18
f 43/64/20 42/65/21 39/59/15
f 39/59/15 40/58/14 43/64/20
f 44/66/22 43/64/20 40/58/14
f 40/58/14 41/62/18 44/66/22
f 46/67/23 45/68/24 27/69/7
f 27/69/7 28/50/6 46/67/23
f 47/70/25 46/67/23 28/50/6
f 28/50/6 29/71/10 47/70/25
f 37/72/17 36/73/16 45/68/24
f 45/68/24 46/67/23 37/72/17
f 38/74/19 37/72/17 46/67/23
f 46/67/23 47/70/25 38/74/19
f 48/75/26 47/76/25 29/54/10
f 29/54/10 32/77/9 48/75/26
f 49/78/27 48/75/26 32/77/9
f 32/77/9 35/79/13 49/78/27
f 41/80/18 38/81/19 47/76/25
f 47/76/25 48/75/26 41/80/18
f 44/66/22 41/80/18 48/75/26
f 48/75/26 49/78/27 44/66/22
f 50/82/28 49/83/27 35/84/13
f 35/84/13 34/85/11 50/82/28
f 51/86/29 50/82/28 34/85/11
f 34/85/11 33/87/12 51/86/29
f 43/64/20 44/88/22 49/83/27
f 49/83/27 50/82/28 43/64/20
f 42/89/21 43/64/20 50/82/28
f 50/82/28 51/86/29 42/89/21
f 52/90/30 51/91/29 33/92/12
f 33/92/12 30/93/8 52/90/30
f 45/94/24 52/90/30 30/93/8
f 30/93/8 27/51/7 45/94/24
f 39/95/15 42/65/21 51/91/29
f 51/91/29 52/90/30 39/95/15
f 36/96/16 39/95/15 52/90/30
f 52/90/30 45/94/24 36/96/16
o BubbleA001_Mesh.004
v -43.686375 0.000000 46.241810
v -43.686375 0.000000 46.241810
v -43.686375 0.000000 46.241810
v -43.686375 0.000000 46.241810
v -43.686375 0.000000 46.241810
v -43.686375 0.000000 46.241810
v -43.686375 0.000000 46.241810
v -43.686375 0.000000 46.241810
v -43.686375 0.000000 46.241810
v -43.686375 0.000000 46.241810
v -43.686375 0.000000 46.241810
v -43.686375 0.000000 46.241810
v -43.686375 0.000000 46.241810
v -43.686375 0.000000 46.241810
v -43.686375 0.000000 46.241810
v -43.686375 0.000000 46.241810
v -43.686375 0.000000 46.241810
v -43.686375 0.000000 46.241810
v -43.686375 0.000000 46.241810
v -43.686375 0.000000 46.241810
v -43.686375 0.000000 46.241810
v -43.686375 0.000000 46.241810
v -43.686375 0.000000 46.241810
v -43.686375 0.000000 46.241810
v -43.686375 0.000000 46.241810
v -43.686375 0.000000 46.241810
vt 0.500000 0.500000
vt 0.500000 0.000000
vt 1.000000 0.000000
vt 1.000000 0.500000
vt 0.000000 0.500000
vt 0.000000 0.000000
vt 0.500000 1.000000
vt 1.000000 1.000000
vt 0.000000 1.000000
vt 0.500000 0.500000
vt 0.000000 0.500000
vt 0.000000 0.000000
vt 0.500000 0.000000
vt 1.000000 0.500000
vt 1.000000 0.000000
vt 0.500000 1.000000
vt 0.000000 1.000000
vt 1.000000 1.000000
vt 0.500000 0.500000
vt 0.000000 0.500000
vt 0.000000 0.000000
vt 1.000000 0.500000
vt 1.000000 0.000000
vt 0.500000 1.000000
vt 0.000000 1.000000
vt 1.000000 1.000000
vt 0.500000 0.500000
vt 0.000000 0.500000
vt 0.500000 0.000000
vt 1.000000 0.500000
vt 1.000000 0.000000
vt 0.500000 1.000000
vt 0.000000 1.000000
vt 0.500000 0.500000
vt 0.000000 0.500000
vt 0.000000 0.000000
vt 0.500000 0.000000
vt 1.000000 0.500000
vt 1.000000 0.000000
vt 0.000000 1.000000
vt 1.000000 1.000000
vt 0.500000 0.500000
vt 0.000000 0.500000
vt 0.000000 0.000000
vt 0.500000 0.000000
vt 1.000000 0.500000
vt 0.500000 1.000000
vt 1.000000 1.000000
vn 0.0000 0.0000 1.0000
vn 0.0000 0.0000 0.9956
vn 0.0000 0.0000 0.9924
vn 0.0000 0.0000 0.9868
usemtl None
s 1
f 57/97/31 54/98/32 53/99/33
f 53/99/33 56/100/31 57/97/31
f 58/101/31 55/102/34 54/98/32
f 54/98/32 57/97/31 58/101/31
f 60/103/32 57/97/31 56/100/31
f 56/100/31 59/104/34 60/103/32
f 61/105/33 58/101/31 57/97/31
f 57/97/31 60/103/32 61/105/33
f 66/106/31 65/107/32 62/108/33
f 62/108/33 63/109/31 66/106/31
f 67/110/32 66/106/31 63/109/31
f 63/109/31 64/111/34 67/110/32
f 69/112/31 68/113/34 65/107/32
f 65/107/32 66/106/31 69/112/31
f 70/114/33 69/112/31 66/106/31
f 66/106/31 67/110/32 70/114/33
f 72/115/31 71/116/31 53/117/33
f 53/117/33 54/98/32 72/115/31
f 73/118/31 72/115/31 54/98/32
f 54/98/32 55/119/34 73/118/31
f 63/120/31 62/121/33 71/116/31
f 71/116/31 72/115/31 63/120/31
f 64/122/34 63/120/31 72/115/31
f 72/115/31 73/118/31 64/122/34
f 74/123/31 73/124/31 55/102/34
f 55/102/34 58/125/31 74/123/31
f 75/126/31 74/123/31 58/125/31
f 58/125/31 61/127/33 75/126/31
f 67/128/32 64/129/34 73/124/31
f 73/124/31 74/123/31 67/128/32
f 70/114/33 67/128/32 74/123/31
f 74/123/31 75/126/31 70/114/33
f 76/130/31 75/131/31 61/132/33
f 61/132/33 60/133/32 76/130/31
f 77/134/31 76/130/31 60/133/32
f 60/133/32 59/135/34 77/134/31
f 69/112/31 70/136/33 75/131/31
f 75/131/31 76/130/31 69/112/31
f 68/137/34 69/112/31 76/130/31
f 76/130/31 77/134/31 68/137/34
f 78/138/31 77/139/31 59/140/34
f 59/140/34 56/141/31 78/138/31
f 71/142/31 78/138/31 56/141/31
f 56/141/31 53/99/33 71/142/31
f 65/143/32 68/113/34 77/139/31
f 77/139/31 78/138/31 65/143/32
f 62/144/33 65/143/32 78/138/31
f 78/138/31 71/142/31 62/144/33
